<svg width="16" height="16" viewBox="0 0 16 16" fill="none" xmlns="http://www.w3.org/2000/svg">
<path fill-rule="evenodd" clip-rule="evenodd" d="M6.40775 9.842L6.49708 9.84202L6.69505 9.84256C8.37651 9.85155 12.3155 10.0044 12.3155 12.6027C12.3155 15.0118 9.08045 15.3337 6.56405 15.3459L6.12045 15.3457C4.43899 15.3367 0.5 15.1839 0.5 12.5862C0.5 10.1262 3.87125 9.842 6.40775 9.842ZM6.40775 10.967C3.2345 10.967 1.625 11.5122 1.625 12.5862C1.625 13.6707 3.2345 14.2212 6.40775 14.2212C9.581 14.2212 11.1905 13.676 11.1905 12.6027C11.1905 11.5167 9.581 10.967 6.40775 10.967ZM13.4031 4.93902C13.7136 4.93902 13.9656 5.19102 13.9656 5.50152L13.9655 6.44225L14.9375 6.44285C15.248 6.44285 15.5 6.69485 15.5 7.00535C15.5 7.31585 15.248 7.56785 14.9375 7.56785L13.9655 7.56725L13.9656 8.50977C13.9656 8.82027 13.7136 9.07227 13.4031 9.07227C13.0926 9.07227 12.8406 8.82027 12.8406 8.50977L12.8405 7.56725L11.87 7.56785C11.5595 7.56785 11.3075 7.31585 11.3075 7.00535C11.3075 6.69485 11.5595 6.44285 11.87 6.44285L12.8405 6.44225L12.8406 5.50152C12.8406 5.19102 13.0926 4.93902 13.4031 4.93902ZM6.40775 0.5C8.6075 0.5 10.3962 2.2895 10.3962 4.4885C10.3962 6.6875 8.6075 8.477 6.40775 8.477H6.3845C5.32025 8.47325 4.32275 8.0555 3.575 7.3025C2.8265 6.54875 2.41625 5.54825 2.41997 4.48625C2.41997 2.2895 4.20875 0.5 6.40775 0.5ZM6.40775 1.625C4.82975 1.625 3.54498 2.90975 3.54498 4.4885C3.542 5.25275 3.836 5.969 4.37225 6.50975C4.90925 7.04975 5.62475 7.349 6.38675 7.352L6.40775 7.90775V7.352C7.9865 7.352 9.27125 6.06725 9.27125 4.4885C9.27125 2.90975 7.9865 1.625 6.40775 1.625Z" fill="#0078D4"/>
</svg>
