<svg width="15" height="16" viewBox="0 0 15 16" fill="none" xmlns="http://www.w3.org/2000/svg">
<path fill-rule="evenodd" clip-rule="evenodd" d="M10.7898 0.5C12.619 0.5 14.1085 1.98875 14.1085 3.81875V12.173C14.1085 14.0075 12.6153 15.5 10.7815 15.5H7.11775C5.2885 15.5 3.79975 14.0112 3.79975 12.1812V11.4748C3.79975 11.1643 4.05175 10.9123 4.36225 10.9123C4.67275 10.9123 4.92475 11.1643 4.92475 11.4748V12.1812C4.92475 13.3903 5.90875 14.375 7.11775 14.375H10.7815C11.9958 14.375 12.9835 13.388 12.9835 12.173V3.81875C12.9835 2.60975 11.9988 1.625 10.7898 1.625H7.126C5.9125 1.625 4.92475 2.612 4.92475 3.8255V4.52525C4.92475 4.83575 4.67275 5.08775 4.36225 5.08775C4.05175 5.08775 3.79975 4.83575 3.79975 4.52525V3.8255C3.79975 1.99175 5.29225 0.5 7.126 0.5H10.7898ZM8.04423 5.41475L10.2409 7.60231C10.2588 7.62013 10.2754 7.63914 10.2907 7.6592L10.241 7.60175C10.2709 7.63127 10.2971 7.66388 10.3193 7.69882C10.3239 7.70758 10.329 7.71614 10.3339 7.72484C10.3425 7.73826 10.3497 7.75253 10.3563 7.76708C10.3601 7.7774 10.3644 7.78766 10.3684 7.79808C10.3748 7.81233 10.3797 7.82698 10.3841 7.84183C10.3866 7.85353 10.3896 7.86519 10.3922 7.877C10.3963 7.8913 10.399 7.90569 10.401 7.92019C10.4011 7.92678 10.4019 7.9337 10.4027 7.94066C10.4057 7.96046 10.4067 7.98018 10.4067 8L10.4013 8.05925L10.4006 8.07629C10.4004 8.07757 10.4003 8.07884 10.4001 8.08011L10.4067 8C10.4067 8.04163 10.4021 8.08286 10.3932 8.12294C10.3896 8.13481 10.3866 8.14647 10.3832 8.15799C10.3797 8.17302 10.3748 8.18767 10.3692 8.20209C10.3644 8.21234 10.3601 8.2226 10.3555 8.23271C10.3497 8.24747 10.3425 8.26174 10.3346 8.27569C10.329 8.28386 10.3239 8.29242 10.3186 8.30082C10.3105 8.31513 10.301 8.32871 10.2908 8.34188C10.2839 8.34965 10.2775 8.35762 10.2708 8.3654C10.2618 8.37686 10.2516 8.38775 10.241 8.39825L8.04423 10.5845C7.93473 10.694 7.79073 10.7487 7.64748 10.7487C7.50348 10.7487 7.35873 10.694 7.24923 10.583C7.02948 10.3625 7.03098 10.007 7.25073 9.788L8.48125 8.5625H0.8125C0.502 8.5625 0.25 8.3105 0.25 8C0.25 7.6895 0.502 7.4375 0.8125 7.4375H8.48125L7.25073 6.21125C7.03098 5.99225 7.02948 5.63675 7.24923 5.41625C7.46898 5.19575 7.82448 5.19575 8.04423 5.41475Z" fill="#0078D4"/>
</svg>
